<mxfile host="app.diagrams.net" modified="2024-03-16T12:06:35.784Z" agent="Mozilla/5.0 (Windows NT 10.0; Win64; x64; rv:123.0) Gecko/20100101 Firefox/123.0" version="24.0.7" etag="VhJ4MG-O9gc0EsWvps7I" type="github">
  <diagram name="Seite-1" id="XGHJkdCXtAVpC0iTfYl_">
    <mxGraphModel>
      <root>
        <mxCell id="0" />
        <mxCell id="1" parent="0" />
      </root>
    </mxGraphModel>
  </diagram>
</mxfile>
